# xmcd CD database file
#
# Track frame offsets:
#	150
#	43388
#	109725
#	165460
#	211179
#	257364
#
# Disc length: 3950 seconds
#
# Revision: 0
# Processed by: cddbd v1.5.2PL0 Copyright (c) Steve Scherf et al.
# Submitted via: CDex 1.70beta1
#
DISCID=490f6c06
DTITLE=Chet Baker Sextet - At The Salt Peanuts Club 1981- CD2
DYEAR=1981
DGENRE=Jazz
TTITLE0='Round Midnight
TTITLE1=Beatrice
TTITLE2=Belle Meade
TTITLE3=I Remember You
TTITLE4=Night Bird
TTITLE5=Tempus Fugit
EXTD=YEAR: 1981
EXTT0=
EXTT1=
EXTT2=
EXTT3=
EXTT4=
EXTT5=
PLAYORDER=
